<?xml version="1.0" encoding="UTF-8" standalone="no"?>
<!-- Created with Inkscape (http://www.inkscape.org/) -->

<svg
   xmlns:dc="http://purl.org/dc/elements/1.1/"
   xmlns:cc="http://creativecommons.org/ns#"
   xmlns:rdf="http://www.w3.org/1999/02/22-rdf-syntax-ns#"
   xmlns:svg="http://www.w3.org/2000/svg"
   xmlns="http://www.w3.org/2000/svg"
   xmlns:sodipodi="http://sodipodi.sourceforge.net/DTD/sodipodi-0.dtd"
   xmlns:inkscape="http://www.inkscape.org/namespaces/inkscape"
   width="400mm"
   height="119mm"
   viewBox="0 0 1417.3228 421.65354"
   id="svg2"
   version="1.1"
   inkscape:version="0.91 r13725"
   sodipodi:docname="App_logo.svg">
  <defs
     id="defs4" />
  <sodipodi:namedview
     id="base"
     pagecolor="#ffffff"
     bordercolor="#666666"
     borderopacity="1.0"
     inkscape:pageopacity="0.0"
     inkscape:pageshadow="2"
     inkscape:zoom="0.7"
     inkscape:cx="725.48188"
     inkscape:cy="260.56351"
     inkscape:document-units="px"
     inkscape:current-layer="layer1"
     showgrid="false"
     inkscape:window-width="1243"
     inkscape:window-height="819"
     inkscape:window-x="230"
     inkscape:window-y="70"
     inkscape:window-maximized="0" />
  <metadata
     id="metadata7">
    <rdf:RDF>
      <cc:Work
         rdf:about="">
        <dc:format>image/svg+xml</dc:format>
        <dc:type
           rdf:resource="http://purl.org/dc/dcmitype/StillImage" />
        <dc:title></dc:title>
      </cc:Work>
    </rdf:RDF>
  </metadata>
  <g
     inkscape:label="Ebene 1"
     inkscape:groupmode="layer"
     id="layer1"
     transform="translate(0,-630.70867)">
    <g
       transform="matrix(0.89087302,0,0,0.89087302,989.33191,606.22671)"
       id="g3602"
       style="fill:#6c5353">
      <g
         id="g3604"
         style="fill:#6c5353">
        <path
           style="fill:#6c5353"
           inkscape:connector-curvature="0"
           d="m 431,192 c -26.5,0 -48,21.5 -48,48 0,5.646 1.167,10.958 2.938,16 L 79,256 c -8.833,0 -16,7.167 -16,16 0,8.833 7.167,16 16,16 l 352,0 c 26.5,0 48,-21.5 48,-48 0,-26.5 -21.5,-48 -48,-48 z m -352,32 192,0 c 26.5,0 48,-21.5 48,-48 0,-26.5 -21.5,-48 -48,-48 -26.5,0 -48,21.5 -48,48 0,5.646 1.167,10.958 2.938,16 L 79,192 c -8.833,0 -16,7.167 -16,16 0,8.833 7.167,16 16,16 z m 256,96 c -0.938,0 -1.834,0.208 -2.791,0.291 C 331.584,320.25 331.063,320 330.438,320 L 83.584,320 C 72.209,320 63,327.167 63,336 c 0,8.833 9.209,16 20.584,16 l 206.354,0 c -1.771,5.042 -2.938,10.376 -2.938,16 0,26.5 21.5,48 48,48 26.5,0 48,-21.5 48,-48 0,-26.5 -21.5,-48 -48,-48 z"
           id="path3606" />
      </g>
    </g>
    <path
       inkscape:connector-curvature="0"
       style="clip-rule:evenodd;fill:#434390;fill-opacity:1;fill-rule:evenodd"
       d="m 874.85704,743.79077 c -5.312,0 -10.562,0.375 -15.792,1.125 -29.874,-40.708 -77.02,-65.125 -128.20796,-65.125 -51.188,0 -98.312,24.417 -128.208,65.125 -5.23,-0.75 -10.48,-1.125 -15.792,-1.125 -61.75,0 -112,50.25 -112,112 0,61.75 50.25,112 112,112 13.688,0 27.084,-2.49996 39.709,-7.33296 28.957,25.24996 65.791,39.333 104.291,39.333 38.54196,0 75.33296,-14.08304 104.29096,-39.333 12.625,4.833 26.021,7.33296 39.709,7.33296 61.75,0 111.99996,-50.25 111.99996,-112 0,-61.75 -50.24996,-112 -111.99996,-112 z m 0,192 c -17.125,0 -32.916,-5.5 -45.938,-14.667 -23.478,28.291 -58.438,46.667 -98.06196,46.667 -39.625,0 -74.584,-18.376 -98.062,-46.667 -13,9.167 -28.813,14.667 -45.938,14.667 -44.188,0 -80,-35.812 -80,-80 0,-44.188 35.812,-80 80,-80 10.812,0 21.062,2.208 30.438,6.083 21.229,-41.416 63.853,-70.083 113.562,-70.083 49.70896,0 92.33396,28.667 113.54096,70.083 9.397,-3.875 19.668,-6.083 30.459,-6.083 44.188,0 79.99996,35.812 79.99996,80 0,44.188 -35.81196,80 -79.99996,80 z"
       id="path4689" />
    <g
       transform="translate(-46.857199,585.50507)"
       id="g4112"
       style="fill:#ffd42a">
      <g
         id="g4114"
         style="fill:#ffd42a">
        <path
           style="clip-rule:evenodd;fill:#ffd42a;fill-rule:evenodd"
           inkscape:connector-curvature="0"
           d="m 256,144 c -61.75,0 -112,50.25 -112,112 0,61.75 50.25,112 112,112 61.75,0 112,-50.25 112,-112 0,-61.75 -50.25,-112 -112,-112 z m 0,192 c -44.188,0 -80,-35.812 -80,-80 0,-44.188 35.812,-80 80,-80 44.188,0 80,35.812 80,80 0,44.188 -35.812,80 -80,80 z m 0,-224 c 8.833,0 16,-7.167 16,-16 l 0,-32 c 0,-8.833 -7.167,-16 -16,-16 -8.833,0 -16,7.167 -16,16 l 0,32 c 0,8.833 7.167,16 16,16 z m 0,288 c -8.833,0 -16,7.167 -16,16 l 0,32 c 0,8.833 7.167,16 16,16 8.833,0 16,-7.167 16,-16 l 0,-32 c 0,-8.833 -7.167,-16 -16,-16 z m 124.438,-245.833 22.625,-22.625 c 6.25,-6.25 6.25,-16.375 0,-22.625 -6.25,-6.25 -16.375,-6.25 -22.625,0 l -22.625,22.625 c -6.25,6.25 -6.25,16.375 0,22.625 6.249,6.25 16.375,6.25 22.625,0 z m -248.876,203.667 -22.625,22.625 c -6.25,6.249 -6.25,16.374 0,22.624 6.25,6.25 16.375,6.25 22.625,0 l 22.625,-22.624 c 6.25,-6.271 6.25,-16.376 0,-22.625 -6.249,-6.251 -16.375,-6.272 -22.625,0 z M 112,256 c 0,-8.833 -7.167,-16 -16,-16 l -32,0 c -8.833,0 -16,7.167 -16,16 0,8.833 7.167,16 16,16 l 32,0 c 8.833,0 16,-7.167 16,-16 z m 336,-16 -32,0 c -8.833,0 -16,7.167 -16,16 0,8.833 7.167,16 16,16 l 32,0 c 8.833,0 16,-7.167 16,-16 0,-8.833 -7.167,-16 -16,-16 z M 131.541,154.167 c 6.251,6.25 16.376,6.25 22.625,0 6.251,-6.25 6.251,-16.375 0,-22.625 l -22.625,-22.625 c -6.25,-6.25 -16.374,-6.25 -22.625,0 -6.25,6.25 -6.25,16.375 0,22.625 l 22.625,22.625 z m 248.918,203.645 c -6.271,-6.25 -16.376,-6.25 -22.625,0 -6.251,6.25 -6.271,16.375 0,22.625 l 22.625,22.625 c 6.249,6.25 16.374,6.25 22.624,0 6.25,-6.25 6.25,-16.374 0,-22.625 l -22.624,-22.625 z"
           id="path4116" />
      </g>
    </g>
  </g>
</svg>
